/* XPM */
static char *xpm_1_16p[] = {
/* columns rows colors chars-per-pixel */
"10 10 2 1",
"  c blue",
". c #C0C0C0",
/* pixels */
".....  ...",
"....   ...",
"...    ...",
"..     ...",
"....   ...",
"....   ...",
"....   ...",
"....   ...",
"..       .",
"..       ."
};
