/* XPM */
static char * xpm_1_32p[] = {
"20 20 2 1",
" 	c #C0C0C0",
".	c #0000FF",
"          ....      ",
"         .....      ",
"        ......      ",
"       .......      ",
"      ........      ",
"     .........      ",
"    ..........      ",
"    ..........      ",
"        ......      ",
"        ......      ",
"        ......      ",
"        ......      ",
"        ......      ",
"        ......      ",
"        ......      ",
"        ......      ",
"    ..............  ",
"    ..............  ",
"    ..............  ",
"    ..............  "};
