/* XPM */
static char *xpm_3[] = {
/* columns rows colors chars-per-pixel */
"10 10 2 1",
"  c red",
". c #C0C0C0",
/* pixels */
"         .",
"          ",
".......   ",
".......   ",
"...      .",
"...      .",
".......   ",
".......   ",
"          ",
"         ."
};
