/* XPM */
static char * xpm_3_24p[] = {
"15 15 2 1",
" 	c #FF0000",
".	c #C0C0C0",
"             ..",
"              .",
"               ",
"...........    ",
"...........    ",
"...........    ",
"....          .",
"....          .",
"....          .",
"...........    ",
"...........    ",
"...........    ",
"               ",
"              .",
"             .."};
