/* XPM */
static char * xpm_3_32p[] = {
"20 20 2 1",
" 	c #FF0000",
".	c #C0C0C0",
"                  ..",
"                   .",
"                    ",
"                    ",
"................    ",
"................    ",
"................    ",
"................    ",
"......             .",
"......            ..",
"......            ..",
"......             .",
"................    ",
"................    ",
"................    ",
"................    ",
"                    ",
"                    ",
"                   .",
"                  .."};
