/* XPM */
static char *xpm_4_24p[] = {
"15 15 2 1",
" 	c #C0C0C0",
".	c #000080",
"   ....   ...  ",
"   ....   ...  ",
"  ....    ...  ",
"  ....    ...  ",
" ....     ...  ",
" ....     ...  ",
"....      ...  ",
"...............",
"...............",
"...............",
"          ...  ",
"          ...  ",
"          ...  ",
"          ...  ",
"          ...  "};
