/* XPM */
static char * xpm_4_32p[] = {
"20 20 2 1",
" 	c #C0C0C0",
".	c #000080",
"    .....    .....  ",
"    .....    .....  ",
"   .....     .....  ",
"   .....     .....  ",
"  .....      .....  ",
"  .....      .....  ",
" .....       .....  ",
" .....       .....  ",
"....................",
"....................",
"....................",
"....................",
"             .....  ",
"             .....  ",
"             .....  ",
"             .....  ",
"             .....  ",
"             .....  ",
"             .....  ",
"             .....  "};
