/* XPM */
static char *xpm_5_16p[] = {
/* columns rows colors chars-per-pixel */
"10 10 2 1",
"  c #800000",
". c #C0C0C0",
/* pixels */
"          ",
"          ",
"   .......",
"   .......",
"         .",
"          ",
".......   ",
".......   ",
"          ",
"         ."
};
