/* XPM */
static char *xpm_5_24p[] = {
"15 15 2 1",
" 	c #800000",
".	c #C0C0C0",
"               ",
"               ",
"               ",
"    ...........",
"    ...........",
"    ...........",
"             ..",
"              .",
"               ",
"...........    ",
"...........    ",
"...........    ",
"               ",
"              .",
"             .."};
