/* XPM */
static char * xpm_5_32p[] = {
"20 20 2 1",
" 	c #800000",
".	c #C0C0C0",
"                    ",
"                    ",
"                    ",
"                    ",
"      ..............",
"      ..............",
"      ..............",
"      ..............",
"                  ..",
"                   .",
"                    ",
"                    ",
"..............      ",
"..............      ",
"..............      ",
"..............      ",
"                    ",
"                    ",
"                   .",
"                  .."};
