/* XPM */
static char *xpm_6_16p[] = {
/* columns rows colors chars-per-pixel */
"10 10 2 1",
"  c #008080",
". c #C0C0C0",
/* pixels */
".        .",
"         .",
"   .......",
"   .......",
"         .",
"          ",
"   ....   ",
"   ....   ",
"          ",
".        ."
};
