/* XPM */
static char *xpm_7_16p[] = {
/* columns rows colors chars-per-pixel */
"10 10 2 1",
"  c black",
". c #C0C0C0",
/* pixels */
"          ",
"          ",
".......   ",
".......   ",
"......   .",
"......   .",
".....   ..",
".....   ..",
"....   ...",
"....   ..."
};
