/* XPM */
static char *xpm_7_24p[] = {
"15 15 2 1",
" 	c #000000",
".	c #C0C0C0",
"               ",
"               ",
"               ",
"..........     ",
"..........     ",
"..........    .",
".........     .",
".........    ..",
"........     ..",
"........    ...",
".......     ...",
".......    ....",
"......     ....",
"......    .....",
"......    ....."};
