/* XPM */
static char * xpm_7_32p[] = {
"20 20 2 1",
" 	c #000000",
".	c #C0C0C0",
"                    ",
"                    ",
"                    ",
"                    ",
"..............      ",
"..............      ",
".............      .",
".............      .",
"............      ..",
"............      ..",
"...........      ...",
"...........      ...",
"..........      ....",
"..........      ....",
".........      .....",
".........      .....",
"........      ......",
"........      ......",
".......      .......",
".......      ......."};
