/* XPM */
static char *xpm_8[] = {
/* columns rows colors chars-per-pixel */
"10 10 2 1",
"  c #808080",
". c #C0C0C0",
/* pixels */
".        .",
"          ",
"   ....   ",
"   ....   ",
".        .",
".        .",
"   ....   ",
"   ....   ",
"          ",
".        ."
};
