/* XPM */
static char * Cursor_32p_xpm[] = {
"30 46 3 1",
" 	c None",
".	c #000000",
"+	c #FFFF00",
".                             ",
"..                            ",
"...                           ",
"....                          ",
"..+..                         ",
"..++..                        ",
"..+++..                       ",
"..++++..                      ",
"..+++++..                     ",
"..++++++..                    ",
"..+++++++..                   ",
"..++++++++..                  ",
"..+++++++++..                 ",
"..++++++++++..                ",
"..+++++++++++..               ",
"..++++++++++++..              ",
"..+++++++++++++..             ",
"..++++++++++++++..            ",
"..+++++++++++++++..           ",
"..++++++++++++++++..          ",
"..+++++++++++++++++..         ",
"..++++++++++++++++++..        ",
"..+++++++++++++++++++..       ",
"..++++++++++++++++++++..      ",
"..+++++++++++++++++++++..     ",
"..++++++++++++++++++++++..    ",
"..+++++++++++++++++++++++..   ",
"..++++++++++++++++++++++++..  ",
"..+++++++++++++++++++++++++.. ",
"..++++++++++++++++++++++++++..",
"..++++++++++++................",
"..+++++++++++.................",
"..++++++++++..                ",
"..+++++++++..                 ",
"..++++++++..                  ",
"..+++++++..                   ",
"..++++++..                    ",
"..+++++..                     ",
"..++++..                      ",
"..+++..                       ",
"..++..                        ",
"..+..                         ",
"....                          ",
"...                           ",
"..                            ",
".                             "};
