/* XPM */
static char * Cursor_16p_xpm[] = {
"15 23 3 1",
" 	c None",
".	c #000000",
"+	c #FFFF00",
".              ",
"..             ",
".+.            ",
".++.           ",
".+++.          ",
".++++.         ",
".+++++.        ",
".++++++.       ",
".+++++++.      ",
".++++++++.     ",
".+++++++++.    ",
".++++++++++.   ",
".+++++++++++.  ",
".++++++++++++. ",
".+++++++++++++.",
".++++++........",
".+++++.        ",
".++++.         ",
".+++.          ",
".++.           ",
".+.            ",
"..             ",
".              "};
