/* XPM */
static char * xpm_flag_32p[] = {
"20 20 3 1",
" 	c #C0C0C0",
".	c #FF0000",
"+	c #000000",
"         ...        ",
"       .....        ",
"     .......        ",
"   .........        ",
"  ..........        ",
"   .........        ",
"     .......        ",
"       .....        ",
"         ...        ",
"          ++        ",
"          ++        ",
"          ++        ",
"          ++        ",
"          ++        ",
"       +++++++      ",
"    ++++++++++++    ",
"  ++++++++++++++++  ",
"  ++++++++++++++++  ",
"  ++++++++++++++++  ",
"  ++++++++++++++++  "};
