/* XPM */
static char *xpm_hand[] = {
/* columns rows colors chars-per-pixel */
"24 24 28 1",
"  c #000000",
". c #010101",
"X c #020202",
"o c #030303",
"O c #040404",
"+ c #050505",
"@ c #060606",
"# c #070707",
"$ c #080808",
"% c #090909",
"& c #0A0A0A",
"* c #0B0B0B",
"= c #0D0D0D",
"- c #0F0F0F",
"; c #111111",
": c #121212",
"> c #141414",
", c #1C1C1C",
"< c #919191",
"1 c #9A9A9A",
"2 c #A0A0A0",
"3 c #ADADAD",
"4 c #BEBEBE",
"5 c #C1C1C1",
"6 c #D5D5D5",
"7 c #DDDDDD",
"8 c #FFFFFF",
"9 c None",
/* pixels */
"999999999999999999999999",
"9999999999@ 999999999999",
"999999999 88 99999999999",
"99999- 99;88-9  99999999",
"9999 88%9 88  88 9999999",
"9999;88 9 88 >88 9999999",
"9999 888  88  88-9 99999",
"99999@88 %88 888 @8%9999",
"99999 888@88 888@88 9999",
"99 @9%8888888888 88-9999",
"9%88 9 888888888888 9999",
"9 88 %8888888888888 9999",
"9 888 8888888888888,9999",
"9-8888888888888888 99999",
"9 8888888888888888 99999",
"97 888888888888888@99999",
"995 88888888888888 99999",
"9995 888888888888 <99999",
"99994 88888888888 999999",
"999993 888888888 1999999",
"999996 88888888%29999999",
"999999 88888888 99999999",
"999999999999999999999999",
"999999999999999999999999"
};
