/* XPM */
static char * xpm_icon_32p[] = {
"32 32 109 2",
"  	c None",
". 	c #FF0000",
"+ 	c #FF1010",
"@ 	c #FF0101",
"# 	c #FFFFFF",
"$ 	c #FFDDDD",
"% 	c #FF4949",
"& 	c #FF1515",
"* 	c #F0F0F0",
"= 	c #B8B8B8",
"- 	c #FF1414",
"; 	c #DFDFDF",
"> 	c #AFAFAF",
", 	c #B1B1B1",
"' 	c #F2CDCD",
") 	c #540000",
"! 	c #691414",
"~ 	c #FEFEFE",
"{ 	c #FDFDFD",
"] 	c #FCFCFC",
"^ 	c #D5D5D5",
"/ 	c #B0B0B0",
"( 	c #ECECEC",
"_ 	c #000000",
": 	c #141414",
"< 	c #FAFAFA",
"[ 	c #F9F9F9",
"} 	c #F8F8F8",
"| 	c #CACACA",
"1 	c #B2B2B2",
"2 	c #FBFBFB",
"3 	c #F7F7F7",
"4 	c #CFCFCF",
"5 	c #F5F5F5",
"6 	c #AEAEAE",
"7 	c #DADADA",
"8 	c #ADADAD",
"9 	c #F6F6F6",
"0 	c #151515",
"a 	c #E3E3E3",
"b 	c #9A9A9A",
"c 	c #535353",
"d 	c #020202",
"e 	c #202020",
"f 	c #676767",
"g 	c #BBBBBB",
"h 	c #E5E5E5",
"i 	c #EEEEEE",
"j 	c #090909",
"k 	c #424242",
"l 	c #A9A9A9",
"m 	c #F4F4F4",
"n 	c #EAEAEA",
"o 	c #ACACAC",
"p 	c #101010",
"q 	c #F3F3F3",
"r 	c #AAAAAA",
"s 	c #ABABAB",
"t 	c #131313",
"u 	c #EBEBEB",
"v 	c #F2F2F2",
"w 	c #9F9F9F",
"x 	c #A4A4A4",
"y 	c #A3A3A3",
"z 	c #A2A2A2",
"A 	c #A1A1A1",
"B 	c #A0A0A0",
"C 	c #9E9E9E",
"D 	c #9D9D9D",
"E 	c #B3B3B3",
"F 	c #F1F1F1",
"G 	c #B9B9B9",
"H 	c #BEBEBE",
"I 	c #A8A8A8",
"J 	c #C3C3C3",
"K 	c #EFEFEF",
"L 	c #C9C9C9",
"M 	c #A7A7A7",
"N 	c #CECECE",
"O 	c #D3D3D3",
"P 	c #E0E0E0",
"Q 	c #DDDDDD",
"R 	c #DCDCDC",
"S 	c #DBDBDB",
"T 	c #D9D9D9",
"U 	c #D8D8D8",
"V 	c #D6D6D6",
"W 	c #D4D4D4",
"X 	c #D2D2D2",
"Y 	c #D1D1D1",
"Z 	c #D0D0D0",
"` 	c #CDCDCD",
" .	c #CCCCCC",
"..	c #CBCBCB",
"+.	c #BFBFBF",
"@.	c #A6A6A6",
"#.	c #A5A5A5",
"$.	c #C0C0C0",
"%.	c #BCBCBC",
"&.	c #BABABA",
"*.	c #B7B7B7",
"=.	c #B6B6B6",
"-.	c #B5B5B5",
";.	c #B4B4B4",
">.	c #C4C4C4",
",.	c #C1C1C1",
"'.	c #BDBDBD",
").	c #E9E9E9",
"!.	c #C2C2C2",
"                                                                ",
"                              . . .                             ",
"                          . . . . .                             ",
"                      . . . . . . .                             ",
"                  . . . . . . . . .                             ",
"                . . . . . . . . . .                             ",
"                . . . . . . . . . .                             ",
"                    + . . . . . . @                             ",
"    # # # # # # # # # $ % . . . . & # # # # # # # # # # * =     ",
"    # # # # # # # # # # # $ % . . - # # # # # # # # # ; > ,     ",
"    # # # # # # # # # # # # # ' ) ! # # # ~ ~ { ] ] ^ / , /     ",
"    # # # # # # # # # # # # # ( _ : # # { ] < [ } } | 1 / /     ",
"    # # # # # # # # # # # # # ( _ : # ~ ] 2 < [ } 3 4 , / >     ",
"    # # # # # # # # # # # # # ( _ : # { ] < [ } 3 5 ^ / > 6     ",
"    # # # # # # # # # # # # # ( _ : # ] 2 < [ 3 3 5 7 > > 8     ",
"    # # # # # # # # # # # # # 9 _ 0 # ~ < < } 3 5 5 ; 6 6 8     ",
"    # # # # # # # # # # a b c 0 _ d e f g # ~ 3 9 5 h 8 6 8     ",
"    # # # # # # i b c j _ _ _ _ _ _ _ _ _ _ k l } m n o 6 o     ",
"  # # # # # # n _ _ _ _ _ _ _ _ _ _ _ _ _ _ _ p # q * r 8 o s   ",
"  # # # # # # ( _ _ _ _ _ _ _ _ _ _ _ _ _ _ _ t # q m r o o s   ",
"  # # # # # # u _ _ _ _ _ _ _ _ _ _ _ _ _ _ _ p # v 9 8 o s r   ",
"  # # # # # # } w x x x x x y z A A B w C C D y 3 v m E o r r   ",
"  # # # # # # # # # # # # ~ ~ ] 2 < [ } 3 5 m m v F v G s r l   ",
"  # # # # # # # # # # # # ~ { ] < < } 3 9 5 m q v F F H s l I   ",
"  # # # # # # # # # # # ~ { ] 2 < [ } 3 9 m m q F * * J r l I   ",
"  # # # # # # # # # # # ~ ] 2 < [ } 3 9 5 m q v F K K L r I M   ",
"  # # # # # # # # # # ~ { ] 2 < } } 9 5 m q v F * K i N l I M   ",
"  # # # # # # # # # # { ] 2 < [ } 3 9 5 m q v * * K i O I I M   ",
"# # # # P Q Q R S 7 T U U V V W O X Y Z 4 N `  ...| L +.M M @.#.",
"# # { | $.$.+.H %.g &.G = *.=.-.;.E 1 , / > 6 o o s r I M @.#.x ",
"# 5 >.,.$.+.H '.%.g G = = =.=.;.E 1 , / > 6 8 o s r l I M @.#.x ",
").,.!.$.+.H '.%.g &.G = *.=.-.;.E 1 / > 6 8 o s r l I M @.#.x y "};
