/* XPM */
static char *xpm_killingmine[] = {
/* columns rows colors chars-per-pixel */
"13 13 3 1",
"  c black",
". c red",
"X c gray100",
/* pixels */
"...... ......",
"...... ......",
".. .     . ..",
"...       ...",
"..  XX     ..",
"..  XX     ..",
"             ",
"..         ..",
"..         ..",
"...       ...",
".. .     . ..",
"...... ......",
"...... ......"
};
