/* XPM */
static char *xpm_killingmine_24p[] = {
"20 20 3 1",
" 	c #FF0000",
".	c #000000",
"+	c #FFFFFF",
"         ..         ",
"         ..         ",
"  ..     ..     ..  ",
"  ..   ......   ..  ",
"    ............    ",
"    ..+++.......    ",
"    ..+++.......    ",
"   ...+++........   ",
"   ..............   ",
"....................",
"....................",
"   ..............   ",
"   ..............   ",
"    ............    ",
"    ............    ",
"    ............    ",
"  ..   ......   ..  ",
"  ..     ..     ..  ",
"         ..         ",
"         ..         "};
