/* XPM */
static char * xpm_mine_32p[] = {
"26 26 3 1",
" 	c #C0C0C0",
".	c #000000",
"+	c #FFFFFF",
"            ..            ",
"            ..            ",
"            ..            ",
"            ..            ",
"    ..   ........   ..    ",
"    .. ............ ..    ",
"      ..............      ",
"     ................     ",
"     ...++++.........     ",
"    ....++++..........    ",
"    ....++++..........    ",
"    ....++++..........    ",
"..........................",
"..........................",
"    ..................    ",
"    ..................    ",
"    ..................    ",
"    .................     ",
"     ................     ",
"      ..............      ",
"    .. ............ ..    ",
"    ..   ........   ..    ",
"            ..            ",
"            ..            ",
"            ..            ",
"            ..            "};
