/* XPM */
static char * xpm_pause[] = {
"20 20 3 1",
" 	c None",
".	c #000000",
"+	c #FFFF00",
"                    ",
"                    ",
"                    ",
"    .....  .....    ",
"    .+++.  .+++.    ",
"    .+++.  .+++.    ",
"    .+++.  .+++.    ",
"    .+++.  .+++.    ",
"    .+++.  .+++.    ",
"    .+++.  .+++.    ",
"    .+++.  .+++.    ",
"    .+++.  .+++.    ",
"    .+++.  .+++.    ",
"    .+++.  .+++.    ",
"    .+++.  .+++.    ",
"    .+++.  .+++.    ",
"    .....  .....    ",
"                    ",
"                    ",
"                    "};
