/* XPM */
static char *xpm_questionmark_24p[] = {
"15 15 2 1",
" 	c #C0C0C0",
".	c #000000",
"     .....     ",
"    .......    ",
"   ...  ....   ",
"   ..    ...   ",
"   ..    ...   ",
"        ...    ",
"       ...     ",
"      ....     ",
"      ...      ",
"      ...      ",
"               ",
"               ",
"      ...      ",
"      ...      ",
"      ...      "};
