/* XPM */
static char * xpm_questionmark_32p[] = {
"20 20 2 1",
" 	c #C0C0C0",
".	c #000000",
"      ........      ",
"     ..........     ",
"    ....   .....    ",
"    ...     ....    ",
"    ...     ....    ",
"    ...     ....    ",
"           ....     ",
"          .....     ",
"          ....      ",
"         ....       ",
"         ....       ",
"        ....        ",
"        ....        ",
"                    ",
"                    ",
"                    ",
"        ....        ",
"        ....        ",
"        ....        ",
"        ....        "};
