/* XPM */
static char * xpm_smiley_win_24p[] = {
"36 36 4 1",
" 	c #C0C0C0",
".	c #000000",
"+	c #FFFF00",
"@	c #808000",
"                                    ",
"                                    ",
"                                    ",
"                                    ",
"                                    ",
"              ........              ",
"            ..++++++++..            ",
"          ..++++++++++++..          ",
"         .++++++++++++++++.         ",
"        .++++++++++++++++++.        ",
"       .++++++++++++++++++++.       ",
"       .++++++++++++++++++++.       ",
"      .++++..............++++.      ",
"      .+++......++++......+++.      ",
"     .+++.+.....++++.....+.+++.     ",
"     .++.++.....++++.....++.++.     ",
"     .+.+++@...++++++...@+++.+.     ",
"     ..++++++++++++++++++++++..     ",
"     .++++++++++++++++++++++++.     ",
"     .++++++++++++++++++++++++.     ",
"     .++++++++++++++++++++++++.     ",
"     .++++.+++++++++++++.+++++.     ",
"      .++++.+++++++++++.+++++.      ",
"      .+++++..+++++++..++++++.      ",
"       .++++++.......+++++++.       ",
"       .++++++++++++++++++++.       ",
"        .++++++++++++++++++.        ",
"         .++++++++++++++++.         ",
"          ..++++++++++++..          ",
"            ..++++++++..            ",
"              ........              ",
"                                    ",
"                                    ",
"                                    ",
"                                    ",
"                                    "};
