/* XPM */
static char * xpm_smiley_win[] = {
"24 24 4 1",
" 	c #C0C0C0",
".	c #000000",
"+	c #FFFF00",
"@	c #808000",
"                        ",
"                        ",
"                        ",
"         ......         ",
"       ..++++++..       ",
"      .++++++++++.      ",
"     .++++++++++++.     ",
"    .++++++++++++++.    ",
"    .++..........++.    ",
"   .++.....++.....++.   ",
"   .+.+....++....+.+.   ",
"   ..++@..++++..@++..   ",
"   .++++++++++++++++.   ",
"   .++++++++++++++++.   ",
"   .+++.++++++++.+++.   ",
"    .+++.++++++.+++.    ",
"    .++++......++++.    ",
"     .++++++++++++.     ",
"      .++++++++++.      ",
"       ..++++++..       ",
"         ......         ",
"                        ",
"                        ",
"                        "};
